<svg xmlns="http://www.w3.org/2000/svg" preserveAspectRatio="xMidYMid" width="115" height="104" viewBox="0 0 115 104"><defs><style>.cls-1{fill:#7f8181;fill-rule:evenodd}</style></defs><path d="M114 52v-2h-3v2h3v1h-4v-7h4v1h-3v2h3v-2h1v5h-1zm-9 18l-2.492 6L100 70h2V29h-2l2.508-6L105 29h-2v41h2zm-2.532 13.26l-1.223 3.206-2.834-.878-32.49 14.423 2.84.88-8.286 1.02 1.2-3.21 2.835.88L97 85.154l-2.836-.88 8.31-1.01zM5 77V18L48 0l44 18v59L49 95 5 77zm3-57v55l40 16.585v-55.45L8.067 19.97 8 20zM48 3L9.367 19.42l39.14 15.84 39.57-15.642L48 3zm41 17.328L49 36.142V92l40-17V20.328zM5.476 84.934l32.49 14.69 2.835-.896 1.2 3.27-8.28-1.034 2.835-.894L4.058 85.38l-2.835.895L0 83.01l8.31 1.03-2.834.894zM12 100h1v1h3v-5h-2v4h-1v-5h4v6h1v3h-1v-2h-5v2h-1v-3h1v-1zm73 1h2v-6h1v6h2v-6h1v7h-7v-7h1v6z" class="cls-1"/></svg>