<svg id="Слой_1" xmlns="http://www.w3.org/2000/svg" viewBox="0 0 16 16"><style>.st0{fill:#7290cb}</style><path class="st0" d="M8 1c3.9 0 7 3.1 7 7s-3.1 7-7 7-7-3.1-7-7 3.1-7 7-7m0-1C3.6 0 0 3.6 0 8s3.6 8 8 8 8-3.6 8-8-3.6-8-8-8z"/><path class="st0" d="M7.5 10.4v-.3c0-.4.1-.8.2-1.1.1-.2.2-.5.4-.7.1-.2.4-.4.7-.7.3-.3.6-.6.7-.8.1-.2.2-.4.2-.6 0-.4-.2-.8-.5-1.1-.3-.4-.7-.6-1.1-.6-.5 0-.8.2-1.1.5-.3.3-.5.7-.5 1.3l-1-.1c.1-.8.4-1.4.8-1.9.5-.4 1-.6 1.8-.6s1.4.2 1.9.7c.5.5.7 1 .7 1.7 0 .4-.1.7-.2 1.1-.2.3-.5.7-1 1.2-.4.2-.6.4-.7.5-.1.2-.2.4-.2.6 0 .2-.1.5-.1.9h-1zm0 2.1v-1.2h1.1v1.2H7.5z"/></svg>