<svg xmlns="http://www.w3.org/2000/svg" viewBox="0 0 57 57"><path fill="#FFF" d="M47 57H10C4.5 57 0 52.5 0 47V10C0 4.5 4.5 0 10 0h37c5.5 0 10 4.5 10 10v37c0 5.5-4.5 10-10 10z"/><path fill="#EFD27F" d="M48.4 12.6l-7.2 5.3-27-5.5L24.5 8z"/><path fill="#EFD27F" d="M14.2 12.4l-.8 5L10 37.5l26 7.2L40.2 23l1-5.1-27-5.5z"/><path fill="#EFD27F" d="M48.2 12.8l-7 5.1-5.3 26.5 8.2-8z"/><path fill="#1E1B1E" d="M38.2 24s0 .1 0 0c-.1.1-.1 0 0 0z"/><path fill="#2E221A" d="M39 22.8l-.8 1.3h-.1c-2.5-1.6-4.7-2.5-8.1-3.3l.4-1.6c3.5.7 5.8 1.8 8.6 3.6z"/><path fill="#2E221A" d="M38.1 24.1c-1 4.8-4.4 4.7-7.1 4.3-2.5-.4-3.6-1.9-4.2-3.8-.1-.5-.3-1-.7-1.1l-1.1-.2c-.5-.1-1 .1-1.3.5-1.3 1.5-3.2 2.3-5.1 1.8-3.3-1-4.2-3.5-3.9-6.4h.1l23.3 4.9c0-.1 0 0 0 0z"/><path fill="#2E221A" d="M23.4 17.8l-.3 1.5c-3.4-.5-5.3-.4-8.3-.1h-.1l-.2-1.5c3.3-.5 5.3-.5 8.9.1z"/><path fill="#1E1B1E" d="M14.9 19.1c-.1 0-.1 0 0 0zm10.3 10.8c-2.6-.6-5.1-1.6-7.2-2.6l-.4-.1s1 5.5 6.8 6.8c6.7 1.4 9-2.3 9.5-3.1-2.6 0-5.6-.3-8.7-1z"/><path fill="#2E221A" d="M27.3 34.7c-.9 0-1.9-.1-3-.3-6.1-1.3-7.2-7.1-7.2-7.2l-.1-1s4 2 8.3 3.2c2.9.8 5.9 1 8.6 1h1l-.5.8c-2 2.9-5 3.5-7.1 3.5z"/><path fill="#FFF" d="M34 30.8c-2.7.1-5.6-.1-8.7-.8-3.7-.9-7.5-2.8-7.5-2.8.9 2.2 2.8 5.1 7.3 5.8 3.2.5 5.7.1 7.6-.7.7-.7 1.1-1.2 1.3-1.5z"/><path fill="#2E221A" d="M18.1 11.8l6.4-3 21.2 4c-17.9-2.7-18.8-4.5-27.6-1zm16.2 3.9l6.3 1.1 4.4-2.9c-3.2 1.4-4.6 2-10.7 1.8z"/><path fill="#2E221A" d="M48.6 12.3l-24-4.6h-.1l-10.2 4.4-.2.2-4.2 25.2.2.3 26 7.2.3-.1 8-8.4.1-.1 4.4-23.8-.3-.3zM40.7 20l-1 5.4 4.1-2.6-4.5 4.5-.9 4.6 4.4-2.8-4.8 4.7-.7 3.4 4.4-2.8-4.8 4.8-1 5.1-25.5-7.1 4.2-24.6L41 18.1l3.7-2.3-4 4.2zm.4-2.4l-20-4.1-5.1-1.6 8.6-3.7 23.3 4.5-6.8 4.9z"/><path fill="#7291C4" d="M15.1 48.7h.4c2.8 0 5.2-1.8 6.2-4.2-1.2-.9-2.8-1.7-4.7-2.3l-1.9 6.4v.1zm-1.6-7.5c-1.6-.3-3.2-.5-4.5-.6-.1.5-.2 1-.2 1.5 0 2.2 1.1 4.2 2.8 5.4l1.9-6.3zm-2.4-4c1.8 0 3.9.3 6 1 1.7.5 3.2 1.1 4.5 1.7l.1-.1c-.9-2.5-3.4-4.3-6.2-4.3-1.7 0-3.2.6-4.4 1.6v.1zm4.3-4.4c5.1 0 9.3 4.2 9.3 9.3s-4.2 9.3-9.3 9.3-9.3-4.2-9.3-9.3 4.2-9.3 9.3-9.3z"/><path fill="#384355" d="M15.4 51.6c-5.2 0-9.5-4.3-9.5-9.5 0-5.3 4.3-9.5 9.5-9.5 5.3 0 9.5 4.3 9.5 9.5.1 5.2-4.2 9.5-9.5 9.5zm0-18.5c-5 0-9 4-9 9s4 9 9 9 9-4 9-9-4-9-9-9z"/><path fill="#384355" d="M21.8 44.3c-1.3-.9-2.9-1.7-4.7-2.4H17l-.2.2-1.9 6.4.1.5h.5c2.9 0 5.4-1.7 6.4-4.4l-.1-.3zm-6.4 4.2l1.7-6c1.6.6 3 1.3 4.2 2.1-1 2.4-3.3 3.9-5.9 3.9zm-1.7-7.4l-.2-.2c-1.6-.3-3.2-.5-4.6-.6l-.2.2c-.1.5-.2 1-.2 1.5 0 2.2 1.1 4.3 2.9 5.6l.4-.1 1.9-6.4zm-4.6 1c0-.4 0-.8.1-1.2 1.2 0 2.6.2 4 .5l-1.7 5.7c-1.6-1.2-2.4-3.1-2.4-5zm12.8-2.4c-1-2.7-3.6-4.5-6.5-4.5-1.7 0-3.3.6-4.5 1.7v.6h.2c1.9 0 3.9.4 6 .9 1.6.5 3.1 1 4.5 1.7 0 0 .1 0 .1.1l.2-.5c-.1 0 0 0 0 0zM11.6 37c1.1-.8 2.5-1.3 3.8-1.3 2.5 0 4.8 1.5 5.8 3.8-1.3-.6-2.6-1.1-4.1-1.5-1.8-.6-3.8-.9-5.5-1z"/><path fill="#EFD27F" d="M10.5 33l1.9 2.5c-2 1.9-3.5 3-5.7 4.4l-2.1-2.1c1.5-2.2 2.9-3.8 5.9-4.8z"/><path fill="#2E221A" d="M6.7 40.2l-2.4-2.4.1-.2c1.5-2.3 2.9-3.9 5.9-4.9l.2-.1 2.2 2.8-.2.2c-2.1 2.1-3.6 3.1-5.7 4.5l-.1.1zM5 37.7l1.8 1.8c1.9-1.2 3.3-2.3 5.3-4.1l-1.7-2.1c-2.7.9-4 2.3-5.4 4.4z"/><path fill="#EFD27F" d="M26.8 38.3s2.8.3 2.6 4.4c-.1 3.5-2.1 4-2.6 4v-8.4z"/><path fill="#EFD27F" d="M26.8 38.3l-.2 8.4h-4.4c-.7-3-1.1-5 0-8.4h4.6z"/><path fill="#2E221A" d="M29.7 42.7c.1-3.6-1.9-4.4-2.6-4.6H22v.1c-1.1 3.5-.8 5.6 0 8.6v.2h5.1c.8-.2 2.5-.9 2.6-4.3zm-7.3 3.8c-.7-2.8-1-4.7 0-7.9h4.2l-.2 7.9h-4zm4.7-.1v-7.8c.7.2 2.2 1 2.1 4.1-.1 2.8-1.4 3.5-2.1 3.7z"/></svg>