<svg xmlns="http://www.w3.org/2000/svg" width="88.75" height="47.5" viewBox="0 0 88.75 47.5"><defs><clipPath id="a"><path d="M0 38h71V0H0v38z"/></clipPath></defs><g clip-path="url(#a)" transform="matrix(1.25 0 0 -1.25 0 47.5)"><path d="M21.2 28.6c-.8 0-1.4.6-1.4 1.4 0 .8.6 1.4 1.4 1.4.8 0 1.4-.6 1.4-1.4 0-.7-.6-1.4-1.4-1.4m-8.7 0c-.8 0-1.4.6-1.4 1.4 0 .8.6 1.4 1.4 1.4.8 0 1.4-.6 1.4-1.4.1-.7-.6-1.4-1.4-1.4m9.2 4.8l2 2.7-1.1.9-2.3-3.1c-1.1.3-2.2.5-3.4.5-1.2 0-2.4-.2-3.4-.5L11.1 37l-1.1-.9 2-2.7c-3.1-1.3-5-3.3-5-6.5h20c0 3.2-2.2 5.2-5.3 6.5M28 24V14c0-2.5 5-2.5 5 0v10c0 2.4-5 2.6-5 0M1 24V14c0-2.5 5-2.5 5 0v10c0 2.4-5 2.6-5 0m6-14c0-1.2.8-2 2-2h1V3c0-2.7 5-2.6 5 0v5h4V3c0-2.6 5-2.7 5 0v5h1c1.2 0 1.9.7 1.9 1.9L27 26H7V10zm56.6 8.5c0 3.1 1.8 5.7 4.5 6.9-1.8 2.6-4.6 3.5-6.6 3.5-3.4 0-4.6-1.4-6.5-1.4h-1.4c-1.9 0-3.1 1.4-6.5 1.4s-8.6-2.6-8.6-10.8c0-8.2 4-11.7 5-13 1-1.3 2.7-2.9 4.3-2.9 1.5 0 4 .5 6.5.7 2.4-.2 5-.7 6.5-.7 1.6 0 3.2 1.6 4.3 2.9.7.8 2.7 2.6 3.9 6.1-3.1 1-5.4 3.9-5.4 7.3m-2.8 19s-3.6-.2-5.9-2.6c-2.2-2.4-2.2-6-2.2-6s3.6.2 5.9 2.6c2.3 2.4 2.2 6 2.2 6" fill="#919191"/></g></svg>