<svg id="Слой_1" xmlns="http://www.w3.org/2000/svg" viewBox="0 0 45 45"><style>.st0{fill:#5e7ebc;stroke:#979797}.st1{fill:#466093}.st2{fill:#ffe189}.st3{fill:#c3a84d}.st4{fill:#f1d37c}.st5{fill:#60522b}.st6{fill:#bba158}.st7{fill-opacity:.3}.st8{fill:#c3aa47}.st9,.st10{fill:#FFF}.st10{stroke:#7290cb}</style><path class="st0" d="M9.8 31.6c5.9 5.9 15.5 5.9 21.4 0s5.9-15.5 0-21.4-15.5-5.9-21.4 0-5.9 15.5 0 21.4z"/><path class="st1" d="M20.6 33l-5.7-.6-9.2-6.3 9-4.5 15.6 4.5z"/><path class="st2" d="M31.2 14.2l-10.6 5.4-10.7-5.4 10.7-3.9z"/><path class="st3" d="M10.5 17.5l10.1 5.8V33l-9.7-6.5z"/><path class="st4" d="M30.6 17.5l-10 5.8V33l9.6-6.9z"/><path class="st5" d="M28.2 21.9c0-.6-.4-.8-.8-.5l-3 1.9c-.5.3-.8 1-.8 1.5v.1c0 .6.4.8.8.5l3-1.9c.4-.3.8-1 .8-1.6z"/><path class="st6" d="M27.7 21.3c.3 0 .5.2.5.6v.1c0 .6-.4 1.2-.8 1.5l-3 1.9c-.4.2-.7.1-.8-.2.1 0 .2-.1.3-.1l3-1.9c.5-.3.8-1 .8-1.5v-.1-.3z"/><path class="st7" d="M20.6 23.3l-10.1-5.8v.6l10 6.2 10-6.1v-.7l-9.9 5.8z"/><path class="st8" d="M10 14.2l10.6 5.4v3.7l-10.5-5.9z"/><path class="st4" d="M31.2 14.2l-10.6 5.4v3.7L31 17.4z"/><path id="a_1_" class="st9" d="M32.7 35c-7.4 6.2-18.4 5.8-25.3-1.1C.1 26.6.1 14.7 7.4 7.4s19.2-7.3 26.5 0c7 7 7.3 18.3.8 25.6l1.8 1.8 1-1c.3-.3.8-.3 1.1 0l4.6 4.6s-.1 2.4-1.3 3.6c-1.3 1.2-3.7 1.3-3.7 1.3l-4.6-4.6c-.3-.3-.3-.8 0-1.1l.9-.9-1.8-1.7zM9.8 31.6c5.9 5.9 15.5 5.9 21.4 0s5.9-15.5 0-21.4-15.5-5.9-21.4 0-5.9 15.5 0 21.4z"/><path id="a_2_" class="st10" d="M32.7 35c-7.4 6.2-18.4 5.8-25.3-1.1C.1 26.6.1 14.7 7.4 7.4s19.2-7.3 26.5 0c7 7 7.3 18.3.8 25.6l1.8 1.8 1-1c.3-.3.8-.3 1.1 0l4.6 4.6s-.1 2.4-1.3 3.6c-1.3 1.2-3.7 1.3-3.7 1.3l-4.6-4.6c-.3-.3-.3-.8 0-1.1l.9-.9-1.8-1.7zM9.8 31.6c5.9 5.9 15.5 5.9 21.4 0s5.9-15.5 0-21.4-15.5-5.9-21.4 0-5.9 15.5 0 21.4z"/></svg>