<svg xmlns="http://www.w3.org/2000/svg" viewBox="0 0 121 75" width="121" height="75"><path fill="#FFCA37" d="M61.1 10.3c-6 0-10.9 4.9-10.9 10.9v.5c1-3 4-5.2 7.4-5.2 4.3 0 7.8 3.5 7.8 7.8 0 3.9-2.8 7.1-6.5 7.7.7.2 1.5.2 2.3.2 6 0 10.9-4.9 10.9-10.9s-5-11-11-11z"/><path fill="#7290C9" d="M31.8 70.7L18.5 54.9c-1-1.2-.8-3 .4-4.1l2.4-2c1.2-1 3-.8 4.1.4L38.6 65c1 1.2.8 3-.4 4.1l-2.4 2c-1.2.9-3 .8-4-.4zm29.5-47.5l-1.9-2.3c-1-1.3-2.9-1.5-4.2-.4L42.1 31.2l-.3.3-5.9 4.9-5.4-11.5s-4.9-2.3-4.5 10.3v9.3l16 19.6 15.6-12.4s6.2-3.6 1.4-10.4l-6.2-7.2 8.1-6.7c1.3-1 1.5-2.9.4-4.2z"/><path fill="#7290C9" d="M99.9 2.4h-77c-2.1 0-3.8 1.7-3.8 3.8v39.5l.8-.6c1-.7 2.3-.7 3.3-.1V33.8c-.3-8.1 1.2-11.3 2.6-12.4V9.2c0-1.6 1.3-2.9 2.9-2.9h60.5c1.6 0 2.9 1.3 2.9 2.9v43c0 1.6-1.3 2.9-2.9 2.9H60.6l-4.3 3.5h43.6c2.1 0 3.8-1.7 3.8-3.8V6.2c0-2.1-1.7-3.8-3.8-3.8zM98 35.5c-2.4 0-4.3-1.9-4.3-4.3s1.9-4.3 4.3-4.3 4.3 1.9 4.3 4.3-1.9 4.3-4.3 4.3z"/></svg>