<svg xmlns="http://www.w3.org/2000/svg" viewBox="0 0 550 83"><path d="M468 39.9l-26.3-9.5-1.5 4.1 26.4 9.7M155.9 13.3l.9 4.4 27.3-4.9-.8-4.4M120 21.9l1.2 4.3 27.1-6.7-1-4.4M85.8 32.5l1.6 4.2 25.6-8.4-1.3-4.1M51.4 45.7l1.8 4.1 26-10.3-1.6-4.1m-65.8 29s-8 4.2-11.9 6.4c.8 1.3 1.4 2.6 2.1 4 4.2-2.4 12-6.5 12-6.5l-2.2-3.9zm9.4.2L46 53l-2-4.1-24.9 11.7m200-56.4l-27 2.9.6 4.5 26.8-3.1m35.8-6.3l-27.8 1.3.4 4.5 27.6-1.3m36.2-4s-16.5-.6-24.9-.6h-3.2l.1 4.5s2.2-.1 3.1-.1c8 0 24.7.5 24.7.5l.2-4.3zm36.2 2.8l-28.3-2.4-.3 4.5 28.1 2.3m8.4-3.5l-.6 4.4 29.5 4.5 1-4.3m6 1.1l-.9 4.5 28.8 6.1 1.1-4.2m6.4 1.6l-1.2 4.4 26.8 7.4 1.3-4m66.2 25.8l-23.8-10.5-1.7 4.2 23.9 10.5M547 77l-23.3-29.3-6.3 14.4c-4.8-2.4-8.9-4.5-8.9-4.5l-1.9 4.1s4.3 2.1 9.1 4.6L510.3 78l36.7-1z" fill="#FFF"/></svg>