<svg xmlns="http://www.w3.org/2000/svg" viewBox="0 0 108 99" width="108" height="99"><path fill="none" d="M18.9 50.2h28v28.2h-28z"/><path fill="#728FC8" d="M79 73.6c-3.9-3.4-6.8-12.5-6.8-23.1 0-8-5.2-14.9-12.4-17.4-.5-2.9-3-5.1-6-5.1s-5.5 2.2-6 5.1c-7.2 2.5-12.4 9.3-12.4 17.4 0 10.6-2.8 19.7-6.8 23.1-2.2 1.9-3.5 4.7-3.5 7.6 0 3.4 2.7 6.1 6.1 6.1h16.4c0 3.4 2.7 6.1 6.1 6.1s6.1-2.7 6.1-6.1h16.4c3.4 0 6.1-2.7 6.1-6.1.2-2.9-1.1-5.7-3.3-7.6zm-47.6 7.6c0-1.1.5-2.2 1.3-2.9 5.5-4.7 8.9-15.4 8.9-27.7 0-6.8 5.5-12.3 12.3-12.3s12.3 5.5 12.3 12.3c0 12.4 3.4 23 8.9 27.7.9.7 1.3 1.8 1.3 2.9h-45z"/><path d="M31.5 25.8c-8.6 6.4-14.4 16.3-15.2 27.6H24c.9-9.4 6-17.5 13.5-22.4l-6-5.2zm44.4-.2L70.1 31c7.5 4.9 12.8 13 13.6 22.5h7.8c-.8-11.5-6.8-21.6-15.6-27.9z" fill="#FFCC05"/></svg>