<svg xmlns="http://www.w3.org/2000/svg" viewBox="0 0 108 99" width="108" height="99"><path fill="none" d="M18.9 50.2h28v28.2h-28z"/><path fill="#7290C9" d="M49.7 57.4H27.2c-1.7 0-3.1-1.4-3.1-3.1 0-1.7 1.4-3.1 3.1-3.1h22.5c1.7 0 3.1 1.4 3.1 3.1 0 1.7-1.4 3.1-3.1 3.1zm30.9-12H27.2c-1.7 0-3.1-1.4-3.1-3.1 0-1.7 1.4-3.1 3.1-3.1h53.4c1.7 0 3.1 1.4 3.1 3.1-.1 1.7-1.5 3.1-3.1 3.1z"/><path fill="#7290C9" d="M90 25.4H20.6c-3.3 0-6 2.7-6 6v47c0 3.3 2.7 6 6 6h41.3V79H21.3c-1.1 0-2-.9-2-2V32.5c0-1.1.9-2 2-2h66.9c1.1 0 2 .9 2 2V77c0 1.1-.9 2-2 2h-2.9v5.4H90c3.3 0 6-2.7 6-6v-47c0-3.3-2.7-6-6-6z"/><circle fill="#FFC937" cx="72.8" cy="68" r="11.9"/><path fill="#FFC937" d="M73.5 83.9c-2.7 0-5.1-.7-7.3-1.8v15.6l7-7.5 7 7.6V82.4c-2.1 1-4.3 1.5-6.7 1.5z"/></svg>