<svg xmlns="http://www.w3.org/2000/svg" viewBox="0 0 108 99" width="108" height="99"><path fill="#7290CB" d="M77.9 89H77c-1-11.8-8-20.9-13.4-27.3C69 55.3 76 46.2 77 34.4h.9c1.7 0 3-1.4 3-3s-1.4-3-3-3H24.6c-1.7 0-3 1.4-3 3 0 1.7 1.4 3 3 3h.9c1 11.8 8 20.9 13.4 27.3C33.5 68 26.5 77.2 25.5 89h-.9c-1.7 0-3 1.4-3 3 0 1.7 1.4 3 3 3h53.2c1.7 0 3-1.4 3-3s-1.2-3-2.9-3zm-46.3 0c1.1-10.7 8.1-18.9 13.2-25.1l.3-.3c1-1.1 1-2.8 0-4l-.3-.3c-5.1-6.1-12-14.3-13.2-25h39.2C69.7 45 62.7 53.2 57.5 59.4l-.3.3c-1 1.1-1 2.8 0 4l.3.3c5.2 6 12.2 14.3 13.3 25H31.6z"/><path fill="#FC0" d="M37.3 86.8s26.7.6 26.7 0c-1.5-7.6-6.5-18.9-13.4-18.6 0 .2-8.1.9-13.3 18.6zm22.8-39.6s-18.4-.5-18.3 0c1.1 5.1 4.5 13 9.2 12.7.1 0 5.7-.6 9.1-12.7z"/></svg>