<svg xmlns="http://www.w3.org/2000/svg" viewBox="0 0 108 99" width="108" height="99"><path fill="#7290C9" d="M33.6 32.9c-17 0-30.8 13.7-30.8 30.7s13.7 30.7 30.7 30.7 30.7-13.7 30.7-30.7-13.7-30.7-30.6-30.7zm0 55.5c-13.8 0-24.9-11.2-24.9-24.9s11.1-24.9 24.9-24.9 24.9 11.2 24.9 24.9-11.2 24.9-24.9 24.9z"/><path fill="#7290C9" d="M21.3 62.7h3v-12h8.5c3.2 0 5.3.1 6.3.4 3 .7 5.3 3.5 5.3 7.6 0 4.8-3.1 7.3-5.8 7.9-1.2.2-3.1.4-5.4.4h-3.5v2.2h13.6v4.4H29.7v3.2h-5.3v-3.2h-3v-4.4h3V67h-3v-4.3h-.1zm8.4-7.5v7.4h2.8c2.1 0 3.5-.1 4.2-.4 1.4-.5 2.2-1.8 2.2-3.3 0-1.8-1.2-3.2-3-3.5-.6-.1-1.8-.2-3.8-.2h-2.4z"/><path fill="#FFCD05" d="M54.7 27.1v8c.9.6 1.7 1.4 2.5 2h47.1v-10H54.7zm10.1 18.1c2 3.1 3.6 6.4 4.6 10h35.1v-10H64.8zm6 17.8v2c0 2.7-.2 5.3-.9 7.9h34.4v-10l-33.5.1z"/></svg>