<svg xmlns="http://www.w3.org/2000/svg" viewBox="0 0 121 75" width="121" height="75"><path fill="#5B7FBB" d="M115.6 44c-.7-2.7-2.9-11-2.9-11V6.1c0-1.9-1.6-3.4-3.6-3.4H59.5c-2 0-3.6 1.5-3.6 3.4V33s-2.1 8.2-2.9 11c0 0-.1.3-.1.8v15.7c0 1.9 1.6 3.4 3.6 3.4h.2v4c0 1.9 1.6 3.4 3.6 3.4h6.6c2 0 3.6-1.5 3.6-3.4v-4h27.7v4c0 1.9 1.6 3.4 3.6 3.4h6.6c2 0 3.6-1.5 3.6-3.4v-4h.2c2 0 3.6-1.5 3.6-3.4V44.8c-.1-.5-.2-.8-.2-.8zM65.7 57.9c-3 0-5.4-2.3-5.4-5.1s2.4-5.1 5.4-5.1c3 0 5.4 2.3 5.4 5.1-.1 2.8-2.5 5.1-5.4 5.1zm18.6-16.5H61.1l5.3-20.3h35.8l5.3 20.3H84.3zM103 57.9c-3 0-5.4-2.3-5.4-5.1s2.4-5.1 5.4-5.1c3 0 5.4 2.3 5.4 5.1s-2.5 5.1-5.4 5.1z"/><path fill="#5B7FBB" d="M54.1 42.9h.3c-.1-.2-.1-.4-.2-.6l-.1.6z"/><path fill="#FFC937" d="M49.7 65.5h-.2c-2 0-3.6-1.5-3.6-3.4v-6.9c-.3.1-.6.1-1 .1-2.3 0-4.2-1.8-4.2-4s1.9-4 4.2-4c.3 0 .7 0 1 .1v-1c0-.6.1-.8.1-.8.2-.7.5-1.9.8-3.1H11.9l4.1-16h28.2l3.3 12.7c.6-2.5 1.2-4.7 1.2-4.7V12H10.6c-1.6 0-2.8 1.2-2.8 2.7v21.1s-1.7 6.5-2.2 8.6c0 0-.1.2-.1.6v12.3c0 1.5 1.3 2.7 2.8 2.7h.1v3.1c0 1.5 1.3 2.7 2.8 2.7h5.2c1.6 0 2.8-1.2 2.8-2.7V60h21.9v3.1c0 1.5 1.3 2.7 2.8 2.7h5.2c.2 0 .4 0 .5-.1v-.2zM15.6 55.3c-2.3 0-4.2-1.8-4.2-4s1.9-4 4.2-4 4.2 1.8 4.2 4-1.9 4-4.2 4z"/></svg>