<svg xmlns="http://www.w3.org/2000/svg" viewBox="0 0 121 75" width="121" height="75"><path fill="#FFC937" d="M86.7 11.6H45.5s-6.5 1.1-4.6 8l8.9 21.9h32.4l8.9-21.9c2.1-6.9-4.4-8-4.4-8z"/><circle fill="#5B80BC" cx="49.1" cy="61.3" r="7.4"/><circle fill="#5B80BC" cx="81.1" cy="61.3" r="7.4"/><path fill="#5B80BC" d="M94 47.2H36.5c1.2-3.3 2.5-6.6 3.8-9.9.2-.4.3-.9.3-1.4 0-.3-.2-.6-.3-.9C35.5 24 30.8 13 26 2h-7c.3 0 1.6 3.7 1.8 4.1.7 1.4 1.3 2.8 1.9 4.3 1.3 2.8 2.5 5.6 3.8 8.4 1.3 2.8 2.5 5.6 3.8 8.4.7 1.4 1.3 2.8 1.9 4.3.5 1.1 1.3 2.4 1.3 3.6 0 1.1-.5 2.2-.9 3.2-.4 1.2-.8 2.5-1.2 3.7-.9 2.8-1.8 6.1-.3 8.7 1.3 2.4 4.3 3.4 6.9 3.3.8 0 1.5-.1 2.2-.1 2.1-2.5 5.3-4 8.8-4 3.5 0 6.7 1.6 8.8 4h14.3c2.1-2.5 5.3-4 8.8-4 3.5 0 6.7 1.6 8.8 4h4.1l.2-6.7z"/></svg>