<svg id="Слой_1" xmlns="http://www.w3.org/2000/svg" viewBox="-275 398.9 44 44"><style>.st0{fill:#fff}.st1{enable-background:new}.st2{fill:#7290cb}</style><circle class="st0" cx="-253" cy="420.9" r="22"/><path class="st1 st2" d="M-255.3 427.5v-.9c0-1.2.2-2.2.5-3.1.3-.7.7-1.3 1.2-2 .4-.5 1.1-1.2 2.2-2.1 1.1-.9 1.8-1.7 2.1-2.2s.5-1.2.5-1.8c0-1.2-.5-2.2-1.4-3.1-.9-.9-2.1-1.4-3.4-1.4-1.3 0-2.4.4-3.3 1.2-.9.8-1.4 2.1-1.7 3.8l-3.2-.4c.3-2.3 1.1-4.1 2.5-5.3 1.4-1.2 3.3-1.9 5.6-1.9 2.4 0 4.4.7 5.8 2 1.5 1.3 2.2 2.9 2.2 4.8 0 1.1-.3 2.1-.8 3-.5.9-1.5 2-3 3.4-1 .9-1.7 1.5-2 2-.3.4-.5.9-.7 1.4s-.2 1.4-.3 2.7h-2.8zm-.2 6.1v-3.5h3.5v3.5h-3.5z"/></svg>