<svg xmlns="http://www.w3.org/2000/svg" width="257.5" height="80" viewBox="0 0 257.5 80"><defs><clipPath id="a"><path d="M0 64h206V0H0v64z"/></clipPath></defs><g clip-path="url(#a)" transform="matrix(1.25 0 0 -1.25 0 80)"><path d="M80.423 38.036H76.72l.5 2.77h3.603c1.1 0 1.8-.334 1.6-1.335-.3-1-1-1.433-2-1.433m-2.4 8.06h3.4c1.2 0 1.8-.21 1.6-1.21-.1-.8-.8-1.31-2.1-1.31H77.52l.502 2.52zm6.302-3.85c.2.1 1.8.758 2.1 2.86.4 2-.9 3.76-4.5 3.76H75.72c-.5 0-.7-.16-.8-.56l-2.2-12.523c-.1-.4 0-.517.5-.517h6.503c3.1 0 5.503 1.34 6.003 3.94.5 2.302-1.2 3.04-1.4 3.04m35.418 8.885h6.503c.3 0 .6.262.7.562l.3 1.83c0 .2 0 .316-.2.416-.1.1-.3.107-.5.107l-6.803-1.797c-.3-.1-.5-.358-.5-.658 0-.2.2-.46.5-.46m21.21-2.265H130.65c-.5 0-.7-.258-.8-.658l-.3-1.783c-.1-.4 0-.582.5-.582h3.4l-1.8-10.393c-.1-.5.1-.688.5-.688h2.202c.4 0 .7.188.8.688l1.8 10.393h3.403c.5 0 .7.153.8.553l.3 1.835c.1.4 0 .635-.5.635m-15.108-11.08h-7.104l.5 2.77h6.004c.5 0 .7.245.8.645l.3 1.563c.1.4 0 .562-.5.562h-6.003l.4 2.518h6.704c.5 0 .7.153.8.553l.3 1.834c.1.4 0 .635-.5.635h-9.605c-.5 0-.7-.26-.8-.66l-2.203-12.78c-.1-.4 0-.668.502-.668h10.005c.5 0 .7.24.8.64l.3 1.692c-.1.5-.2.69-.7.69m-14.908 4.263c1 .2 2 1.3 2.2 2.6.5 3.003-1.7 4.503-4.703 4.503-2.802 0-5.403-1.557-5.803-3.758-.1-.5 0-.556.5-.556h1.9c.4 0 .5.056.6.356.502 1 1.602 1.18 2.303 1.18.9 0 2-.374 1.7-1.674-.2-.9-.9-1.373-2.3-1.373h-1c-.4 0-.602-.24-.702-.54l-.2-1.39c-.1-.4 0-.59.5-.59h1c1.502 0 2.302-.53 2.102-1.73-.2-1.1-1.4-1.616-2.4-1.616-.7 0-1.902.216-2.102 1.316 0 .4-.1.518-.5.518h-2.002c-.5 0-.6-.125-.7-.625-.4-2.3 1.8-4.016 4.603-4.016 3 0 5.803 1.094 6.403 4.496.6 1.402-.2 2.496-1.4 2.897m-11.908-4.01H91.93l.5 2.77h6.003c.5 0 .7.17.8.57l.3 1.6c.1.4 0 .6-.5.6H93.03l.4 2.266h6.703c.5 0 .7.203.8.603l.3 1.81c.1.4 0 .61-.5.61H91.13c-.502 0-.702-.21-.802-.61l-2.2-12.674c-.1-.4 0-.568.5-.568h10.005c.5 0 .7.164.8.565l.3 1.727c-.1.5-.2.728-.7.728m54.427-.25h-3.7l.5 2.77h3.6c1.102 0 1.802-.335 1.602-1.336-.2-1-.9-1.437-2-1.437m-2.402 8.06h3.402c1.2 0 1.8-.21 1.6-1.21-.1-.8-.8-1.31-2-1.31h-3.402l.4 2.52zm6.303-3.798c.2.1 1.8.858 2.1 2.96.4 2-.9 3.86-4.5 3.86h-6.204c-.503 0-.703-.26-.803-.66l-2.2-12.775c-.1-.4 0-.668.5-.668h6.503c3.102 0 5.504 1.44 6.004 4.042.5 2.302-1.2 3.142-1.4 3.242m47.224 6.567h-2.1c-.7 0-.902-.532-1.102-.732l-4.002-5.217-2.1 5.227c-.1.3-.1.723-.9.723h-2.203c-.5 0-.7-.232-.8-.632l-2.2-12.66c-.1-.5.1-.557.5-.557h2.2c.403 0 .703.04.803.54l1.3 7.174 1.6-3.745c.1-.2.2-.442.502-.442h1.1c.3 0 .6.328.7.428l2.902 3.716-1.3-7.137c-.1-.5.1-.533.5-.533h2.1c.4 0 .7.04.8.54l2.202 12.71c.1.3 0 .6-.5.6m-18.41-11.08h-7.104l.5 3.022h6.003c.5 0 .7.146.8.546l.3 1.613c.1.4 0 .61-.5.61h-6.004l.4 2.268h6.704c.5 0 .7.18.8.58l.3 1.822c.1.4 0 .62-.5.62h-9.606c-.5 0-.7-.23-.8-.63l-2.2-12.664c-.102-.4 0-.555.5-.555h10.004c.5 0 .7.14.8.54l.3 1.616c-.1.5-.2.615-.7.615m-17.71 8.517c1.202 0 1.802-.31 2.102-1.01.1-.3.1-.708.6-.708h2.1c.502 0 .702.108.802.608.2 2.7-2.3 4.006-5.103 4.006-2.603 0-6.205-1.4-6.805-4.7l-.9-5.002c-.6-3.302 2.5-4.802 5.102-4.802 2.8 0 6.103 1.702 6.603 4.403.1.5-.1.702-.5.702h-2.2c-.5 0-.6-.3-.7-.8-.4-1.003-1.4-1.404-2.602-1.404-1.5 0-2.3.8-2.1 2.1l.8 4.403c.2 1.4 1.3 2.2 2.8 2.2M75.953 27.093c0 .332-.097.598-.29.8a1 1 0 0 1-.75.3 1.26 1.26 0 0 1-.807-.282c-.234-.187-.417-.46-.547-.816a2.888 2.888 0 0 1-.197-.984c0-.37.1-.666.303-.884a.992.992 0 0 1 .762-.328c.383 0 .706.165.966.494.37.465.557 1.032.557 1.7m-3.995-1.002c0 .96.27 1.727.813 2.3.542.57 1.255.856 2.138.856.765 0 1.363-.21 1.793-.632.43-.422.644-.99.644-1.703 0-.84-.268-1.564-.806-2.177-.538-.612-1.258-.918-2.16-.918-.49 0-.922.098-1.3.293a1.91 1.91 0 0 0-.845.83 2.48 2.48 0 0 0-.278 1.153m6.955 3.132h1.387l-.41-2.015h1.93l.41 2.015h1.388l-1.104-5.29h-1.386l.464 2.268h-1.934l-.464-2.267h-1.384l1.104 5.29zm6.493 0h4.426l-1.106-5.29h-1.382l.87 4.03h-1.77l-.576-2.696c-.11-.528-.303-.89-.576-1.12-.273-.23-.654-.335-1.142-.335a4.5 4.5 0 0 0-.894.123l.22 1.17c.188-.042.36-.063.512-.063.238 0 .406.078.503.235.096.156.197.524.3 1.006l.61 2.943zm8.27-2.868a2.756 2.756 0 0 0-.337-.063c-.703-.083-1.162-.207-1.377-.37a.565.565 0 0 1-.23-.474c0-.163.056-.3.173-.412a.642.642 0 0 1 .466-.17c.21 0 .41.052.596.155.188.1.328.233.42.395.094.16.176.412.248.754l.038.185zm-1.334 1.3l-1.37.117c.16.464.43.826.82 1.086.39.26.904.39 1.546.39.668 0 1.16-.133 1.48-.402.32-.268.48-.597.48-.984a3.18 3.18 0 0 0-.043-.5 32.503 32.503 0 0 0-.29-1.387c-.137-.62-.205-1.054-.205-1.3 0-.223.038-.488.116-.74H93.51c-.055.252-.09.385-.102.588a2.144 2.144 0 0 0-.708-.523 1.925 1.925 0 0 0-.806-.183c-.43 0-.785.14-1.065.423-.28.282-.42.644-.42 1.087 0 .495.154.89.46 1.187.31.298.86.477 1.65.54.668.054 1.114.12 1.34.2.057.194.087.35.087.47a.47.47 0 0 1-.18.374c-.122.1-.3.152-.54.152-.25 0-.447-.052-.592-.154a.768.768 0 0 1-.296-.436m5.615 3.58h.68c.074-.252.174-.463.3-.567.125-.107.283-.15.476-.15.39 0 .71.21.964.715h.645c-.135-.504-.35-.813-.65-1.06a1.54 1.54 0 0 0-1-.38c-.383 0-.697.13-.945.366s-.404.57-.47 1.075M96.94 29.22h1.4l-.64-3.12c-.077-.368-.116-.622-.116-.713 0-.15.055-.29.166-.398a.586.586 0 0 1 .425-.17c.124 0 .246.02.366.07.123.045.247.115.374.212.127.095.24.205.34.33.102.122.197.285.285.487.06.15.13.44.2.78l.517 2.52h1.402l-1.085-5.288h-1.31l.147.705c-.572-.55-1.196-.825-1.87-.825-.427 0-.762.122-1.007.367-.244.243-.366.57-.366.98 0 .18.054.585.165 1.12l.606 2.94zm6.09.002h1.388l-.41-2.015h1.93l.41 2.015h1.387l-1.104-5.29h-1.385l.464 2.268h-1.936l-.464-2.267h-1.383l1.104 5.29zm5.258-2.015h2.72l-.282-1.26h-2.72l.282 1.26zm7.102-1.317l1.363-.22c-.225-.606-.557-1.066-.997-1.383a2.556 2.556 0 0 0-1.53-.473c-.66 0-1.184.197-1.572.59-.387.395-.58.937-.58 1.628 0 .563.116 1.096.35 1.597.235.5.59.895 1.06 1.183.473.288.99.432 1.554.432.613 0 1.1-.16 1.466-.48.365-.318.57-.738.616-1.26l-1.334-.14c-.033.29-.122.503-.266.64a.797.797 0 0 1-.57.205c-.27 0-.522-.1-.757-.302-.234-.202-.414-.504-.54-.907a3.82 3.82 0 0 1-.188-1.13c0-.305.075-.54.225-.707a.726.726 0 0 1 .562-.25c.225 0 .44.082.65.245.208.163.37.407.488.733m5.655 1.065c.003 0 .005.107.005.14 0 .384-.086.67-.26.863-.172.192-.403.288-.693.288a1.1 1.1 0 0 1-.78-.326c-.23-.218-.384-.46-.466-.965h2.196zm1.182-.756h-3.517c-.004-.253-.005-.15-.005-.18 0-.346.098-.65.295-.86a.96.96 0 0 1 .72-.333c.467 0 .83.235 1.09.717l1.256-.214c-.244-.503-.57-.884-.98-1.136a2.572 2.572 0 0 0-1.375-.38c-.695 0-1.262.22-1.7.662-.434.44-.653 1.025-.653 1.752 0 .71.197 1.34.592 1.895.536.75 1.303 1.124 2.3 1.124.635 0 1.14-.197 1.514-.59.375-.392.562-.89.562-1.596 0-.337-.033-.61-.098-.86m2.336-.05c0-.405.098-.718.295-.94.196-.225.43-.336.695-.336.23 0 .454.084.67.25.214.17.392.448.534.837.14.39.21.75.21 1.084 0 .388-.09.685-.277.89a.91.91 0 0 1-.71.312c-.266 0-.51-.096-.73-.286-.22-.192-.39-.472-.51-.84-.12-.37-.18-.694-.18-.97m-.845 3.07h1.328l-.113-.58c.284.235.55.378.796.48.25.1.513.138.797.138.544 0 .98-.193 1.312-.568.33-.374.494-.936.494-1.678 0-.935-.285-1.726-.854-2.37-.488-.552-1.066-.828-1.734-.828-.687 0-1.207.26-1.558.816l-.562-2.712h-1.402l1.495 7.303zm6.786-2.265h1.07c.52 0 .872.057 1.053.18.18.125.27.308.27.555 0 .183-.065.317-.197.407-.132.09-.332.134-.598.134-.447 0-.803-.1-1.07-.314-.268-.213-.443-.456-.528-.96m-.073-.756c.008-.504.1-.772.278-.99.177-.22.508-.35.994-.35.31 0 .542.04.695.137a.48.48 0 0 1 .23.434c0 .214-.09.42-.272.545-.18.124-.382.225-.603.225h-1.32zm2.56.35c.327-.1.57-.247.735-.437.162-.19.244-.426.244-.707 0-.426-.198-.798-.59-1.113-.396-.316-1.01-.474-1.85-.474-.78 0-1.38.197-1.792.596-.414.4-.62.954-.62 1.664 0 .88.266 1.627.798 2.24.533.615 1.31.922 2.333.922.706 0 1.2-.14 1.482-.418.282-.28.423-.6.423-.96a1.17 1.17 0 0 0-.29-.81c-.194-.22-.485-.387-.872-.504M136 29.222h1.402l-.64-3.122c-.078-.368-.117-.622-.117-.713 0-.15.055-.29.166-.398a.59.59 0 0 1 .427-.17c.124 0 .246.02.366.07.12.046.245.116.372.212.127.096.24.205.342.33.1.123.195.285.283.487.06.15.128.442.2.78l.517 2.52h1.402l-1.086-5.29h-1.31l.147.708c-.572-.552-1.196-.827-1.87-.827-.427 0-.762.124-1.007.368-.244.245-.366.572-.366.983 0 .18.056.585.166 1.12l.606 2.94zm8.106-3.332l1.363-.22c-.227-.606-.56-1.066-1-1.383a2.556 2.556 0 0 0-1.53-.473c-.66 0-1.183.197-1.57.59-.388.395-.58.937-.58 1.628 0 .563.115 1.096.35 1.597.234.5.59.895 1.06 1.183.472.288.99.432 1.553.432.613 0 1.1-.16 1.466-.48.364-.318.57-.738.615-1.26l-1.334-.14c-.032.29-.12.503-.265.64a.795.795 0 0 1-.57.205c-.27 0-.522-.1-.757-.302-.235-.202-.415-.504-.54-.907a3.82 3.82 0 0 1-.19-1.13c0-.305.076-.54.226-.707a.726.726 0 0 1 .562-.25c.225 0 .44.082.65.245.208.163.37.407.488.733m6.778 3.332h4.704l-1.104-5.29h-1.387l.86 4.03h-1.935l-.86-4.03h-1.382l1.104 5.29zm8.892-2.267c.003 0 .005.107.005.14 0 .384-.088.67-.26.863-.174.192-.405.288-.695.288a1.1 1.1 0 0 1-.78-.326c-.23-.218-.384-.46-.466-.965h2.193zm1.182-.756h-3.517c-.006-.253-.007-.15-.007-.18 0-.346.098-.65.295-.86a.96.96 0 0 1 .72-.333c.466 0 .83.235 1.09.717l1.255-.214c-.244-.503-.57-.884-.98-1.136a2.572 2.572 0 0 0-1.375-.38c-.697 0-1.264.22-1.7.662-.436.44-.655 1.025-.655 1.752 0 .71.197 1.34.592 1.895.537.75 1.304 1.124 2.3 1.124.636 0 1.14-.197 1.515-.59.375-.392.562-.89.562-1.596 0-.337-.033-.61-.098-.86m2.33-.05c0-.405.1-.718.296-.94.198-.225.43-.336.697-.336.23 0 .454.084.67.25.214.17.392.448.534.837.144.39.214.75.214 1.084 0 .388-.092.685-.278.89a.91.91 0 0 1-.71.312c-.266 0-.51-.096-.73-.286-.22-.192-.39-.472-.51-.84-.12-.37-.18-.694-.18-.97m-.845 3.07h1.33l-.113-.58c.284.235.55.378.796.48.248.1.513.138.797.138.543 0 .98-.193 1.31-.568.33-.374.496-.936.496-1.678 0-.935-.285-1.726-.854-2.37-.49-.552-1.067-.828-1.735-.828-.687 0-1.207.26-1.558.816l-.564-2.712h-1.402l1.495 7.303zm8.94-2.265c.003 0 .005.107.005.14 0 .384-.086.67-.26.863-.172.192-.403.288-.693.288a1.1 1.1 0 0 1-.78-.326c-.23-.218-.384-.46-.466-.965h2.194zm1.182-.756h-3.517c-.004-.253-.005-.15-.005-.18 0-.346.098-.65.295-.86a.96.96 0 0 1 .72-.333c.467 0 .83.235 1.09.717l1.256-.214c-.242-.503-.57-.884-.977-1.136a2.572 2.572 0 0 0-1.376-.38c-.697 0-1.264.22-1.7.662-.436.44-.655 1.025-.655 1.752 0 .71.198 1.34.593 1.895.537.75 1.304 1.124 2.3 1.124.636 0 1.14-.197 1.515-.59.375-.392.562-.89.562-1.596 0-.337-.033-.61-.098-.86m2.464.755h1.07c.52 0 .872.057 1.053.18.18.125.273.308.273.555 0 .183-.066.317-.198.407-.132.09-.332.134-.598.134-.447 0-.803-.1-1.07-.314-.268-.213-.443-.456-.528-.96m-.074-.756c.006-.504.098-.772.276-.99.178-.22.51-.35.995-.35.31 0 .54.04.694.137a.48.48 0 0 1 .23.434.65.65 0 0 1-.27.545c-.183.124-.384.225-.605.225h-1.32zm2.56.35c.325-.1.57-.247.733-.437.16-.19.243-.426.243-.707 0-.426-.197-.798-.59-1.113-.395-.316-1.01-.474-1.848-.474-.782 0-1.38.197-1.793.596-.413.4-.62.954-.62 1.664 0 .88.267 1.627.8 2.24.532.615 1.31.922 2.332.922.707 0 1.2-.14 1.483-.418.28-.28.422-.6.422-.96a1.17 1.17 0 0 0-.29-.81c-.195-.22-.486-.387-.873-.504m5.793.542c0 .332-.097.598-.29.8a1 1 0 0 1-.75.3 1.26 1.26 0 0 1-.807-.282c-.234-.187-.417-.46-.547-.816a2.888 2.888 0 0 1-.195-.984c0-.37.103-.666.305-.884a.99.99 0 0 1 .762-.328c.384 0 .706.165.967.494.37.465.557 1.032.557 1.7m-3.995-1.002c0 .96.27 1.727.813 2.3.542.57 1.255.856 2.137.856.766 0 1.364-.21 1.793-.632.43-.422.645-.99.645-1.703 0-.84-.27-1.564-.806-2.177-.537-.612-1.257-.918-2.16-.918-.488 0-.92.098-1.3.293a1.91 1.91 0 0 0-.844.83 2.48 2.48 0 0 0-.278 1.153m7.535 1.642l-1.154.195c.36.877 1.08 1.315 2.16 1.315.62 0 1.085-.13 1.39-.39a1.26 1.26 0 0 0 .456-.998c0-.335-.114-.616-.342-.843a1.583 1.583 0 0 0-.777-.435c.27-.058.493-.197.667-.415.174-.22.26-.465.26-.74 0-.41-.186-.78-.56-1.108-.375-.33-.973-.493-1.793-.493-1.228 0-1.964.48-2.21 1.45l1.316.13c.166-.48.496-.72.99-.72.246 0 .447.075.605.22a.697.697 0 0 1 .237.535c0 .238-.08.407-.235.508-.156.1-.413.15-.772.15l.118.856c.325 0 .558.013.698.04a.63.63 0 0 1 .37.238c.11.13.163.282.163.458 0 .18-.068.33-.203.452a.712.712 0 0 1-.496.183c-.36 0-.658-.196-.89-.59m7.668-.638c0 .332-.097.598-.29.8a1 1 0 0 1-.75.3 1.26 1.26 0 0 1-.807-.282c-.236-.187-.42-.46-.55-.816a2.888 2.888 0 0 1-.194-.984c0-.37.1-.666.303-.884a.99.99 0 0 1 .76-.328c.385 0 .707.165.968.494.37.465.556 1.032.556 1.7m-3.996-1.002c0 .96.27 1.727.813 2.3.543.57 1.256.856 2.138.856.766 0 1.363-.21 1.793-.632.43-.422.646-.99.646-1.703 0-.84-.27-1.564-.806-2.177-.537-.612-1.257-.918-2.16-.918-.488 0-.92.098-1.3.293a1.91 1.91 0 0 0-.844.83 2.48 2.48 0 0 0-.278 1.153m6.87 3.132h1.377l-.47-2.257c.26.003.45.025.567.115.118.09.27.288.46.62.368.655.656 1.1.864 1.252.21.152.556.27 1.04.27h.363l-.193-1.007h-.17a.47.47 0 0 1-.31-.105c-.065-.053-.154-.183-.267-.366-.302-.492-.532-.803-.688-.922a1.473 1.473 0 0 0-.518-.254c.342-.062.588-.362.738-.892l.488-1.743h-1.32l-.414 1.536c-.085.304-.177.496-.276.573-.1.076-.273.113-.52.113l-.49-2.224h-1.367l1.104 5.29z" fill="#7290cb"/><path d="M46.606 8.165c-.32 0-.48 0-.704.064l-34.22 9.53c-1.6.48-2.558 1.98-2.334 3.58l5.596 32.94c.16.8.64 1.536 1.376 1.76l12.153 5.277c.8.32 1.6.48 2.558.48.48 0 .8-.064 1.28-.16l33.166-6.46c.256 0 .32-.16.32-.384l-6.332-33.517c-.16-.8-.48-1.535-1.12-2.174l-9.82-10.137c-.48-.544-1.12-.8-1.92-.8" fill="#cfb56b"/><path d="M53.116 47.913l-27.92 5.853-6.876 2.078c-.256.064-.256.384 0 .48l10.618 4.54c.96.48 1.92.48 2.878.32l31.982-6.14c.256 0 .32-.383.064-.575l-8.124-5.98c-.8-.578-1.76-.8-2.622-.578m1.12-2.56l-1.12-5.5c-.064-.48.48-.895.863-.575l4.956 3.518-6.14-6.972c-.48-.48-.704-.96-.8-1.503l-.576-3.037c-.063-.48.48-.896.896-.64 0 0 5.757 4.222 5.5 3.998l-6.78-7.93c-.48-.48-.798-1.023-.894-1.6l-.48-2.493c-.064-.48.384-.896.864-.576 0 0 5.532 4 5.436 3.84l-5.34-6.43c-1.92-2.078-2.175-3.038-2.303-3.997L47.2 9.855c-.16-.704-.704-1.12-1.44-.96l-33.676 9.21c-1.503.48-2.463 1.856-2.143 3.455l5.6 33.07c0 .063.16.223.383.223l37.098-7.676c0 .032 1.536-.383 1.216-1.823m-25.84 16.15L16.24 56.23c-.702-.384-1.342-1.023-1.534-1.92L9.14 21.305c-.318-1.663.8-3.358 2.496-3.837l34.124-9.37c1.024-.32 2.175 0 2.815.735L58.49 19.13c.575.575.958 1.343 1.118 2.238l6.333 33.517c.066.224-.16.48-.48.576-3.58.64-26.32 5.023-33.195 6.398-1.375.288-2.75.128-3.87-.352"/><path d="M50.143 38.33l-.16-.294h-.064c-3.52 2.518-6.654 3.717-11.13 4.676-.385.16-.705.596-.577.98l.16.81c.064.48.48.643.96.643 3.997-.895 7.035-2.192 10.17-4.11.895-.512 1.215-1.81.64-2.704"/><path d="M28.228 46.788l-.256-.8c-.064-.318-.384-.478-.703-.478-4.864.575-11.676.16-11.676.16s-.383 1.758 1.76 2.397c3.517.32 6.236.225 10.233-.383.48-.095.736-.575.64-.895m21.747-8.573c-1.6-6.973-6.556-6.877-10.394-6.333-3.58.48-5.435 2.718-6.075 5.5-.256.705-.48 1.44-1.12 1.6l-1.503.48c-.64.16-1.44-.16-1.918-.704-1.92-2.173-4.702-3.453-7.42-2.622-4.893 1.536-6.173 5.182-5.757 9.436l34.188-7.356"/><path d="M15.616 6.822l.895 2.622a4.21 4.21 0 0 1 3.04 1.535c.64.702 1.664.894 2.495.382.384-.255.704-.48 1.024-.703.702-.48.96-1.44.382-2.176-1.438-2.08-3.58-3.358-6.075-3.678-1.215-.13-2.08.99-1.76 2.014M8.74 15.074c.48 0 .862 0 1.278-.063.96-.065 1.6-.8 1.76-1.6.16-1.12.64-2.175 1.438-2.88l-.798-2.62c-.384-1.023-1.76-1.44-2.72-.703a9.406 9.406 0 0 0-2.717 6.236c.066.992.8 1.63 1.76 1.63m9.98 7.26c3.037-.958 5.116-3.26 5.916-6.075.384-1.024-.8-1.983-1.76-1.44-.96.48-1.854 1.024-2.878 1.344-1.854.8-3.773 1.344-5.852 1.76-.48.064-.896.16-1.28.255l-1.918.256c-1.024.065-1.44 1.44-.64 2.176a9.073 9.073 0 0 0 8.41 1.726m.897 2.718c-6.397 1.92-13.017-1.534-15.032-7.834-1.855-6.332 1.6-12.953 7.9-14.87 6.3-1.984 13.016 1.534 14.935 7.834 1.95 6.332-1.503 12.953-7.803 14.87" fill="#7290cb"/><path d="M20.157 16.544c.768-.256 1.47-.608 2.143-.99.256-.13.51-.257.767-.417.384-.224.714-.096.906.096.096.096.423.384.17.863v.032c-.755 2.815-2.792 4.925-5.606 5.79-2.847.83-5.794.19-8-1.696-.32-.288-.308-.672-.212-.928.096-.287.36-.51.647-.51l1.954-.257c.416-.096.833-.16 1.313-.256 2.173-.35 4.125-.925 5.916-1.725m3.326-2.303a1.44 1.44 0 0 0-.8.225c-.255.128-.51.305-.767.433-.672.352-1.31.725-2.047.976h-.033c-1.727.756-3.614 1.263-5.756 1.678-.48.064-.864.136-1.28.232l-1.887.21c-.607.033-1.12.443-1.31 1.05-.225.64-.033 1.34.48 1.79 2.397 2.045 5.66 2.747 8.762 1.852 3.038-.96 5.31-3.263 6.172-6.333.224-.608.032-1.28-.48-1.728-.287-.223-.67-.384-1.055-.384M9.955 7.46c.352-.255.8-.32 1.215-.223.416.128.736.384.864.768l.703 2.367c-.735.735-1.215 1.786-1.375 2.97-.128.575-.608 1.273-1.407 1.273h-.032c-.352 0-.736.037-1.215.037-.768 0-1.28-.493-1.344-1.293a8.993 8.993 0 0 1 2.59-5.9m.832-1.087c-.48 0-.927.16-1.31.448l-.074.033c-1.727 1.727-2.635 4.093-2.887 6.492v.064c.252 1.214 1 2.046 2.184 2.046.48 0 .914 0 1.36-.096a2.32 2.32 0 0 0 2.09-1.918c.16-1.088.613-2.047 1.317-2.655l.194-.16-.86-2.877a2.086 2.086 0 0 0-1.407-1.28 2.162 2.162 0 0 0-.607-.096m5.213.32c-.098-.352-.034-.768.222-1.056.256-.32.672-.48 1.088-.415 2.4.32 4.446 1.567 5.79 3.518.255.32.255.61.223.833-.064.32-.224.608-.512.768-.35.256-.637.48-1.02.704a1.57 1.57 0 0 1-1.984-.32c-.735-.895-1.823-1.47-3.038-1.63L16 6.692zm1.15-2.152c-.576 0-1.15.196-1.535.644a1.84 1.84 0 0 0-.384 1.793l.96 2.862.256.024c1.088.064 2.11.572 2.75 1.372a2.395 2.395 0 0 0 3.007.477c.416-.256.735-.513 1.087-.737a1.83 1.83 0 0 0 .833-1.312c.096-.51-.064-.964-.384-1.348-1.473-2.11-3.744-3.526-6.334-3.778h-.256zM16 25.18c-4.958 0-9.467-3.135-11.034-8.092-1.79-6.205 1.567-12.505 7.643-14.36 2.973-.927 6.107-.672 8.857.768a11.342 11.342 0 0 1 5.597 6.78c1.855 6.108-1.535 12.536-7.58 14.36-1.15.383-2.334.543-3.486.543m.095-23.796c-1.247 0-2.526.192-3.74.575-6.526 1.982-10.108 8.73-8.19 15.35 2.08 6.557 8.892 10.107 15.544 8.09 6.46-1.95 10.073-8.857 8.09-15.38a12.22 12.22 0 0 0-6.012-7.26 12.566 12.566 0 0 0-5.693-1.376" fill="#2f4155"/><path d="M29.343 23.17c-7.516 2.176-9.85 8.22-10.554 10.81-.066.48.382.8.702.576 1.983-.895 6.46-2.878 11.193-4.157 3.902-1.12 11.13-1.377 13.368-1.44.384 0 .48-.385.384-.64-1.12-1.888-5.117-7.325-15.095-5.15"/><path d="M42.662 27.272c.256.256.064.576-.256.576-3.678-.096-7.74.224-11.897 1.28-4.255.958-8.477 2.877-10.17 3.677-.32.16-.578-.16-.48-.48 1.533-3.038 4.412-6.716 10.296-7.612 4.51-.8 9.147-.32 12.505 2.56" fill="#fff"/><path d="M45.02 50.888l7.42-1.28c1.28-.223 2.558.097 3.582.704l4.925 3.294c-4.893-1.918-6.876-2.974-15.927-2.718"/><path d="M26.84 5.638c-.894.16-1.534.864-1.598 1.76-.16 1.758-.064 4.253 1.023 7.29.32.896 1.12 1.216 1.92 1.024l3.773-.48c1.343-.16 3.454-1.663 2.718-5.756-.32-1.663-.895-2.88-1.6-3.582-.798-.8-1.598-.8-2.173-.704l-4.062.448z" fill="#cfb56b"/><path d="M26.905 6.022l4.062-.48c.51-.064 1.15-.064 1.823.608.67.672 1.183 1.855 1.503 3.39.383 2.24-.128 3.518-.64 4.19-.448.607-1.087 1.023-1.76 1.087l-3.773.48c-.703.128-1.28-.16-1.503-.768-.895-2.4-1.215-4.8-1.023-7.1.128-.705.607-1.28 1.31-1.41m4.446-1.31c-.223 0-.383.03-.48.03l-4.093.48a2.345 2.345 0 0 0-1.92 2.11c-.223 2.433.13 4.927 1.057 7.454.35.99 1.28 1.503 2.366 1.28l3.742-.48c.864-.096 1.727-.64 2.303-1.408.607-.8 1.215-2.302.767-4.83-.32-1.726-.895-3.005-1.695-3.805-.767-.67-1.535-.83-2.047-.83"/><path d="M10.05 25.21c.64-.64.705-1.598.257-2.398-.96-1.44-2.463-3.454-5.18-5.117-.8-.48-1.6-.255-2.24.32l-.576.576c-.957.96-1.756 3.456 1.28 6.238 1.28 1.12 2.4 1.76 3.456 1.92 1.12.16 1.76-.32 2.238-.704l.768-.832z" fill="#cfb56b"/><path d="M7.46 26.362c-.128 0-.256 0-.384-.032-.927-.16-1.983-.736-3.23-1.823-1.28-1.183-1.983-2.43-2.015-3.646-.03-1.15.578-1.82.738-2.013l.576-.575c.383-.35 1.023-.67 1.758-.255 2.624 1.63 4.095 3.518 5.087 4.99.382.64.32 1.374-.193 1.886l-.8.8c-.416.384-.863.672-1.535.672M4.2 17.058c-.544 0-1.12.224-1.63.672l-.577.576c-.638.64-.99 1.6-.99 2.59.032.992.416 2.527 2.27 4.222 1.376 1.183 2.56 1.855 3.646 2.015 1.343.19 2.142-.448 2.56-.8l.03-.032.8-.8c.767-.766.895-1.917.287-2.877-1.023-1.567-2.558-3.55-5.34-5.245-.29-.224-.672-.32-1.056-.32"/></g></svg>