<svg width="260" height="39" viewBox="0 0 260 39" xmlns="http://www.w3.org/2000/svg"><path d="M52.3 31.4l-13.9-.1 1-5.4h11.7c1 0 1.3-.4 1.5-1.2l.6-3.2c.1-.7-.1-1.2-1-1.2H40.5l.8-4.5 13.1.1c1 0 1.3-.4 1.5-1.2l.6-3.4c.1-.7 0-1.2-1.1-1.2L36.7 10c-1 0-1.3.4-1.5 1.2l-4.4 24.7c-.1.7 0 1.2 1 1.2l19.5.1c1 0 1.3-.4 1.5-1.2l.6-3.4c.1-.7-.1-1.2-1.1-1.2zm23.3-7.9c1.9-.5 3.9-2.6 4.4-5.1 1.1-5.9-3.3-8.7-9.1-8.8-5.5 0-10.5 3.1-11.2 7.5-.2 1.1.1 1.2 1 1.2h3.8c.7 0 .9-.2 1.2-.9 1-2 3.1-2.3 4.5-2.3 1.8 0 3.8.7 3.4 3.3-.3 1.8-1.7 2.7-4.5 2.7h-2c-.8 0-1.2.4-1.3.9l-.5 2.7c-.1.7 0 1.1.9 1.1h2c3 0 4.4 1.1 4 3.2-.4 2.2-2.8 3.1-4.6 3.1-1.4 0-3.8-.5-4.1-2.4 0-.7-.2-.9-.9-.9h-3.9c-1 0-1.2.2-1.4 1.2-.8 4.4 3.6 7.8 9.1 7.8 5.9 0 11.4-2.1 12.6-8.7.3-2.7-1.2-4.8-3.4-5.6zm29 8.1l-13.9-.1 1-5.4h11.7c1 0 1.3-.4 1.5-1.2l.6-3.2c.1-.7-.1-1.2-1-1.2H92.8l.8-4.5 13.1.1c1 0 1.3-.5 1.5-1.2l.6-3.4c.1-.7 0-1.2-1.1-1.2L89 10.2c-1 0-1.3.4-1.5 1.2l-4.4 24.7c-.1.7 0 1.2 1.1 1.2l19.5.1c1 0 1.3-.4 1.5-1.2l.6-3.4c-.1-.7-.2-1.2-1.2-1.2zm29.6-21.2l-20.2-.1c-1 0-1.3.4-1.5 1.2l-.6 3.4c-.1.7.1 1.2 1 1.2h6.7L116 36.2c-.2.9.3 1.2 1 1.2h4.3c.8 0 1.3-.2 1.5-1.2l3.7-20.1h6.7c1 0 1.3-.4 1.5-1.2l.6-3.4c.1-.7-.1-1.1-1.1-1.1zM92.7 5.5h12.6c.6 0 1.2-.5 1.3-1l.6-3.5c.1-.3-.1-.6-.3-.8-.2-.2-.6-.3-.9-.2L92.7 3.5c-.6.1-1 .6-1 1.1 0 .5.4.9 1 .9zM23.5 23c.4-.2 3.4-1.5 4.2-5.6.7-3.9-1.7-7.5-8.8-7.5H6.7c-1 0-1.3.5-1.5 1.2L.8 35.9c-.1.7 0 1.2 1.1 1.2h12.8c6 0 10.8-2.6 11.7-7.9.8-4.5-2.5-6.1-2.9-6.2zm-12.2-7.4h6.6c2.3 0 3.5.5 3.2 2.3-.3 1.6-1.5 2.5-4 2.5h-6.6l.8-4.8zm4.5 15.6H8.5l.9-5.2h7.1c2.1 0 3.5.6 3.2 2.5-.4 1.9-1.7 2.7-3.9 2.7zm172.1-15.5c2.3 0 3.5.6 4.1 2 .3.5.2 1.3 1.1 1.3h4.2c1 0 1.4-.2 1.6-1.2.4-5.2-4.5-7.9-9.9-7.9-5.2 0-12.2 2.8-13.3 9.3l-1.7 9.7c-1.1 6.5 4.8 9.3 10 9.4 5.4 0 11.9-3.3 12.8-8.6.2-1-.1-1.4-1.1-1.4h-4.3c-1 0-1.2.7-1.4 1.5-.7 2-2.7 2.8-5.1 2.8-2.9 0-4.6-1.5-4.1-4.1l1.5-8.6c.5-2.7 2.7-4.2 5.6-4.2zm34.6 16.4l-13.9-.1 1-5.4h11.7c1 0 1.3-.4 1.5-1.2l.6-3.2c.1-.7 0-1.2-1-1.2h-11.7l.8-4.5 13.1.1c1 0 1.3-.4 1.5-1.2l.6-3.4c.1-.7 0-1.2-1.1-1.2l-18.7-.1c-1 0-1.3.4-1.5 1.2L201 36.6c-.1.7 0 1.2 1 1.2l19.5.1c1 0 1.3-.4 1.5-1.2l.6-3.4c.1-.8-.1-1.2-1.1-1.2zm36-21.3h-4.2c-1.4 0-1.8.9-2.2 1.4l-7.8 10.1-4.2-10.2c-.3-.5-.3-1.4-1.8-1.4H234c-1 0-1.3.4-1.5 1.2l-4.4 24.8c-.2.9.3 1.2 1 1.2h4.3c.8 0 1.3-.2 1.5-1.2l2.5-14 3.1 7.2c.2.3.4.9 1.1.9h2.2c.7 0 1.1-.5 1.4-.9l5.6-7.2-2.5 14c-.2 1 .3 1.2 1 1.2h4.2c.8 0 1.3-.2 1.5-1.2l4.4-24.8c.3-.6.1-1.1-.9-1.1zm-92.3 12.8c.4-.2 3.4-1.5 4.2-5.6.7-3.9-1.7-7.5-8.8-7.5h-12.2c-1 0-1.3.4-1.5 1.2l-4.4 24.8c-.1.7.1 1.2 1.1 1.2l12.8.1c6 0 10.8-2.6 11.8-7.9.7-4.6-2.6-6.2-3-6.3zM154 16.2h6.6c2.3 0 3.5.5 3.2 2.3-.3 1.6-1.5 2.4-3.9 2.4h-6.7l.8-4.7zm4.5 15.5h-7.3l.9-5.2h7c2.1 0 3.5.6 3.2 2.5-.3 1.9-1.7 2.8-3.8 2.7z" fill="#7291C4" fill-rule="evenodd"/></svg>