<svg xmlns="http://www.w3.org/2000/svg" viewBox="0 0 108 99" width="108" height="99"><path fill="none" d="M18.9 50.2h28v28.2h-28z"/><path fill="#FFCD05" d="M104.8 25.3C104.8 13 94.8 3 82.5 3S60.1 13 60.1 25.3c0 4.3 1.2 8.2 3.3 11.6v.1c.3.4.5.8.8 1.2l18.1 27.1 17.5-26.2c.7-.9 1.4-2 2-3 2-3.2 3-6.9 3-10.8zM82.5 38.2c-6.1 0-11-4.9-11-11s4.9-11 11-11 11 4.9 11 11-4.9 11-11 11z"/><path fill="#7290C9" d="M106.6 66.9L95.5 54.5l-2.5 4 7.9 8.8-35.8 15.4-1.3-31.5 2.6-1.4c-.8-1-2.6-3.7-2.6-3.7s-2 1.4-2.5 1.2c-3.5-.9-23.2-10.7-25-10.7-.4 0-1 .3-1.3.5-3.3 2-6.6 4.1-9.8 6.2-1.6 1-3.3 2.1-4.9 3.1-.9.6-2 1-2.7 1.9-.5.6-.7 1.5-1 2.3-.5 1.2-1.1 2.5-1.6 3.7-1.5 3.4-2.9 6.8-4.4 10.2-2.6 6-5.1 11.9-7.7 17.9-.2.4-.3.7-.5 1.1 0 0-1.1 2 .9 3.6 0 0 .6 1.4 4.3 0l26.3-11.5c8.4 3.8 16.8 7.5 25.2 11.3 1.8.8 3.1 1.8 5.2 1 12.4-4.6 24.6-9.7 37-14.5 1.2-.5 2.4-.9 3.6-1.4-.1.2 3.7-1.5 1.7-5.1zm-74.9 4.6L8.1 82.2l13.1-30.6 12.3-7.9-1.8 27.8zm5.8.8l.8-29.9 20.6 9 1.3 32.1-22.7-11.2z"/></svg>