<svg xmlns="http://www.w3.org/2000/svg" viewBox="0 0 121 75" width="121" height="75"><circle fill="#7290C9" cx="30.8" cy="64" r="7.8"/><circle fill="#7290C9" cx="100.1" cy="64" r="7.8"/><path fill="#FC0" d="M119.6 40L112 18.3c-.6-1.9-3-3.3-5.6-3.3H92.1l-1.4 8.7c.6.2 1.2.3 1.9.3h5.3c2.8 0 5.1 1.5 5.7 3.6l3.1 12.2H88.2l-3.5 22.5h2.7c.4-6.4 5.7-11.4 12-11.4 6.4 0 11.8 5.1 12 11.4h2.9c1.4 0 2.5-.9 2.5-1.9l4.1-18.5c.3-.9-.3-1.5-1.3-1.9z"/><path fill="#7290C9" d="M81.6 2.1H27.2c-2.4 0-4.4 2.4-4.4 5.3l-.5 3.4h34.3c1.3 0 2.3 1 2.3 2.3v.6c0 1.3-1 2.3-2.3 2.3H3.8c-1.3 0-2.3 1-2.3 2.3v.6c0 1.3 1 2.3 2.3 2.3l51.3.1c1.3 0 2.3 1 2.3 2.3v.6c0 1.3-1 2.3-2.3 2.3l-26.7.1c-1.3 0-2.3 1-2.3 2.3v.5c0 1.3 1 2.3 2.3 2.3l25.3.1c1.3 0 2.3 1 2.3 2.3v.6c0 1.3-1 2.3-2.3 2.3H12.2c-1.3 0-2.3 1-2.3 2.3v.1c0 1.3 1 2.3 2.3 2.3H18l-2.2 15.5c0 2.3 1.2 4.3 3 5 .9-5.8 5.9-10.2 12-10.2s11.2 4.5 12 10.5h31.8c2.4 0 4.4-2.4 4.4-5.3l7-49.8c0-2.9-2-5.3-4.4-5.3z"/></svg>