<svg xmlns="http://www.w3.org/2000/svg" viewBox="0 0 108 99" width="108" height="99"><path fill="#FFCD05" d="M76.5 45.3l-2.7-3.1s-20 10.6-23.9 20.3l-9.3-7.6-5.3 4.4 16.9 17c0-.1 11.3-22.3 24.3-31z"/><path fill="#7290C9" d="M53.3 24.9c-.5 0-32.3 4.3-32.3 4.3V70c0 1.9 0 3.7.7 5.5 2.6 6.8 8.5 11.9 14.6 15.6 4.6 2.8 9.6 5 14.7 6.7.1.1 1.8.5 2.4.7.6-.2 2.3-.7 2.4-.7 5.1-1.7 10.1-3.9 14.7-6.7 6.1-3.7 11.9-8.8 14.6-15.6.7-1.8.7-3.6.7-5.5V29.2c-.1 0-31.9-4.3-32.5-4.3zM80 71.4c-2.1 10.7-22.6 19.3-26.6 20.8-4.1-1.5-24.6-10-26.6-20.8V34.6L53.3 31 80 34.6v36.8z"/></svg>