<svg id="Слой_1" xmlns="http://www.w3.org/2000/svg" viewBox="0 0 16 16"><style>.st0{fill:#565e62}.st1{fill:#fff}</style><path class="st0" d="M8 1C4.1 1 1 4.1 1 8s3.1 7 7 7 7-3.1 7-7-3.1-7-7-7z"/><path class="st1" d="M7.6 10.1v-.3c0-.4 0-.7.1-1l.3-.6c.1-.1.3-.4.6-.7.4-.2.6-.4.7-.6.1-.2.1-.4.1-.6 0-.4-.1-.7-.4-1-.2-.2-.6-.3-.9-.3-.4 0-.7.1-1 .4s-.4.6-.5 1.1l-.8-.1c.1-.7.3-1.3.7-1.6.4-.4.9-.6 1.5-.6.7 0 1.2.2 1.6.6.4.4.6.9.6 1.5 0 .3-.1.6-.2.9-.1.3-.4.6-.8 1-.2.3-.4.5-.5.6-.1.2-.2.3-.2.5s-.1.4-.1.8h-.8zM7.5 12v-1.1h1V12h-1z"/></svg>