<svg xmlns="http://www.w3.org/2000/svg" width="118.75" height="118.75" viewBox="0 0 118.75 118.75"><defs><clipPath id="a"><path d="M0 95h95V0H0v95z"/></clipPath></defs><g clip-path="url(#a)" transform="matrix(1.25 0 0 -1.25 0 118.75)"><path d="M95 47.5C95 21.266 73.734 0 47.5 0S0 21.266 0 47.5 21.266 95 47.5 95 95 73.734 95 47.5" fill="#fff"/><path d="M65.99 55.5c0-10.21-8.28-18.49-18.49-18.49-10.212 0-18.49 8.28-18.49 18.49 0 10.21 8.278 18.49 18.49 18.49 10.21 0 18.49-8.28 18.49-18.49m12.776-43.617C77.688 22.51 68.65 31 57.75 31H38.5c-11.246 0-20.485-9.036-21.07-20.143A47.303 47.303 0 0 1 47.5.125c11.977 0 22.91 4.443 31.266 11.758" fill="#7290cb"/></g></svg>